PathFileType	4	(X/Y/Z)	/Users/rkoike/Documents/python/sports2d/worker-zone-detection_Sports2D/worker-zone-detection_Sports2D_px_person01.trc
DataRate	CameraRate	NumFrames	NumMarkers	Units	OrigDataRate	OrigDataStartFrame	OrigNumFrames
60	60	13	22	m	60	2843	4549
Frame#	Time	Hip			RHip			RKnee			RAnkle			RBigToe			RSmallToe			RHeel			LHip			LKnee			LAnkle			LBigToe			LSmallToe			LHeel			Neck			Head			Nose			RShoulder			RElbow			RWrist			LShoulder			LElbow			LWrist			
		X1	Y1	Z1	X2	Y2	Z2	X3	Y3	Z3	X4	Y4	Z4	X5	Y5	Z5	X6	Y6	Z6	X7	Y7	Z7	X8	Y8	Z8	X9	Y9	Z9	X10	Y10	Z10	X11	Y11	Z11	X12	Y12	Z12	X13	Y13	Z13	X14	Y14	Z14	X15	Y15	Z15	X16	Y16	Z16	X17	Y17	Z17	X18	Y18	Z18	X19	Y19	Z19	X20	Y20	Z20	X21	Y21	Z21	X22	Y22	Z22
2843	47.38333333333333	1925.7765679724205	473.66289739251357	0.0	1940.0734439808596	497.46151618254174	0.0	1953.9541558564374	563.1508629751872	0.0	1872.4534635318976	640.4132237252296	0.0	1887.0240571879312	684.5089242467416	0.0	1875.281709340092	682.8319344347491	0.0	1851.2436159863043	644.6547532236892	0.0	1935.635787396161	434.81185864410406	0.0	1949.8020031314472	563.0479325666703	0.0	1873.9087662105164	638.9614967781472	0.0	1889.4215753748322	681.417948102691	0.0	1883.7656289652898	677.1759880533156	0.0	1851.2432338593067	643.2409668244865	0.0	1946.6567099174633	333.0825501963933	0.0	1949.1304248030895	285.31267864860905	0.0	1945.6049675641002	303.16642638262164	0.0	1927.9024944472683	552.2323034273114	0.0	1918.7736172262244	569.6313611863707	0.0	1863.38969934585	654.1442107979277	0.0	1932.7424318061046	552.8476912905279	0.0	1918.2203885816746	567.5386662435443	0.0	1867.0519723969974	649.4745642772396	0.0
2844	47.4	1925.7852538477437	473.65209796146155	0.0	1940.228036175354	495.84563065704947	0.0	1954.128656924495	562.5423235759336	0.0	1872.4579609228058	640.4091964515874	0.0	1887.6020647000169	685.4241578410507	0.0	1875.2817090765752	682.8319346297093	0.0	1851.2432022949558	644.6553453258647	0.0	1935.5043932360907	435.0683907976112	0.0	1949.9637418649859	562.4319459371961	0.0	1873.9187772529965	638.9534026407357	0.0	1889.4215753755138	681.4179481025064	0.0	1883.7656291039893	677.1759879699232	0.0	1851.2477250682741	643.2367564762985	0.0	1948.544238436194	328.8851070567843	0.0	1950.9967311755634	281.92878338466085	0.0	1947.9454136154645	299.3930928832075	0.0	1928.591636370518	549.2311678228791	0.0	1918.8353221686812	568.9698577174491	0.0	1863.260251412639	653.6737551599973	0.0	1934.054637596592	549.8287633113642	0.0	1917.9539503020987	567.81045167134	0.0	1868.8236198420468	647.6750126410467	0.0
2845	47.416666666666664	1925.7979744906086	473.6362283316968	0.0	1940.7143669094623	492.61600352704926	0.0	1954.7712005633266	561.1340054848929	0.0	1872.4660939143798	640.4014921774883	0.0	1888.3431059763102	686.8711496864083	0.0	1875.2817083245159	682.8319351806216	0.0	1851.2426796491936	644.6560933285991	0.0	1935.3183702641509	435.4130207780502	0.0	1950.5250099730602	561.0777337054631	0.0	1873.909657441191	638.9631730832373	0.0	1889.421575376352	681.4179481022754	0.0	1883.7656292318838	677.1759878930275	0.0	1851.2561281647602	643.2288788363859	0.0	1951.5653511188723	322.37375273931013	0.0	1953.9319888980413	276.7087210325684	0.0	1951.67082449737	293.5787688708882	0.0	1929.7703531577329	544.5899037115848	0.0	1919.1704351888307	567.3556926027974	0.0	1863.3507043643174	652.6294816790544	0.0	1936.2122863954396	545.1338365730202	0.0	1917.6901927595648	568.0748365236965	0.0	1871.6610091184436	644.9613656779558	0.0
2846	47.43333333333333	1925.8121545991112	473.6184492184729	0.0	1941.6864424882106	487.58812736536777	0.0	1956.1275756009725	558.7087708811575	0.0	1872.4777180454646	640.3899162498242	0.0	1888.994722199541	688.6605077598156	0.0	1875.2817068805475	682.8319362337226	0.0	1851.2422346834567	644.6567300760508	0.0	1935.1216014767817	435.7458033916811	0.0	1951.6872626699992	558.8203501294411	0.0	1873.8601547026972	639.0098336649327	0.0	1889.4215753770216	681.4179481020828	0.0	1883.7656292500071	677.1759878821314	0.0	1851.2685151480005	643.2172663797955	0.0	1955.3578373417126	314.51305669220596	0.0	1957.5381667353201	270.4526061375524	0.0	1956.3162182154358	286.62064299307343	0.0	1931.3646017885242	539.0091627635362	0.0	1919.9488302028115	564.4888049975563	0.0	1863.9147377751622	650.8777234653219	0.0	1939.0076842893573	539.4476140524621	0.0	1917.6053300819492	568.148482807419	0.0	1875.2255136716578	641.8070805700447	0.0
2847	47.45	1925.820601622315	473.6076654666095	0.0	1943.1998394863742	481.4904346636055	0.0	1958.3266140434505	555.4053006877203	0.0	1872.4902014361267	640.376527770842	0.0	1889.0037903863295	690.1096531782639	0.0	1875.2817047042759	682.831937815019	0.0	1851.2422687400124	644.6566811110952	0.0	1935.0274159995192	435.8323681208151	0.0	1953.545695551775	555.8505622505477	0.0	1873.745182150909	639.1153606125375	0.0	1889.4215753768453	681.4179481021092	0.0	1883.7656289903666	677.1759880382394	0.0	1851.2824564308573	643.2041967318543	0.0	1958.5400564325255	308.52163608684754	0.0	1960.4125093727894	265.77589218231594	0.0	1960.1538573422495	281.43975655730196	0.0	1932.9234094989315	534.8003273567348	0.0	1921.2922777734177	560.4611279517791	0.0	1865.2573349023396	648.5571122880991	0.0	1941.5208443534798	535.0767134937466	0.0	1918.0093041881428	567.7119326903451	0.0	1878.2215532578552	639.6471097297776	0.0
2848	47.46666666666667	1925.8096391510041	473.62087640165663	0.0	1945.0353645576188	476.7868004822763	0.0	1961.1296143995019	552.1335899571568	0.0	1872.4966067917735	640.3674996014059	0.0	1887.4503771595016	689.7874327329235	0.0	1875.2817021765052	682.831939642265	0.0	1851.2434409537786	644.6550030327045	0.0	1935.2432984564828	435.26589546881615	0.0	1955.8758702813445	553.0961493038044	0.0	1873.5467608102333	639.294513654218	0.0	1889.4215753747353	681.417948102649	0.0	1883.7656282275616	677.175988496873	0.0	1851.2910504655265	643.1961398440009	0.0	1958.1639148479308	310.9746767662777	0.0	1959.6352346565286	267.9820901050583	0.0	1959.5263233851906	283.95058427849943	0.0	1933.377473122419	536.6659309377935	0.0	1923.126426112229	556.254097900008	0.0	1867.6084133205466	646.3753011711774	0.0	1941.7076049171305	536.7491110973154	0.0	1919.3334201970115	566.3247903959341	0.0	1877.8821899365912	641.307666652504	0.0
2849	47.483333333333334	1925.758823179679	473.6835786614396	0.0	1946.4514743132204	478.5346874690282	0.0	1963.563559223686	551.0773164747901	0.0	1872.4841015251527	640.3749352735476	0.0	1883.127261101641	685.3847436121112	0.0	1875.281700449475	682.8319408709665	0.0	1851.246604122066	644.6504753226973	0.0	1936.0692034868528	433.4877242384329	0.0	1957.825745004082	552.6638534599881	0.0	1873.2758820820313	639.5349233000728	0.0	1889.42157536932	681.4179481040796	0.0	1883.76562674445	677.175989388587	0.0	1851.2810735933176	643.2054924778848	0.0	1949.413605728833	332.28079165160545	0.0	1950.5200749753978	285.4198984829166	0.0	1948.4922134751987	303.4532063697564	0.0	1930.8585346138375	552.0272666367473	0.0	1924.9504215204192	554.3624475754989	0.0	1870.8657642391884	645.955834796914	0.0	1936.1366565684996	551.968089030209	0.0	1922.021066466215	563.5415490398323	0.0	1869.6847283441805	651.1379460046577	0.0
2850	47.5	1925.6446782893765	473.8251879130014	0.0	1945.9259452645542	494.7687208611864	0.0	1963.5125689226595	556.078292111487	0.0	1872.433959685419	640.4173939214747	0.0	1874.9203545558612	673.9749830874067	0.0	1875.2817017910613	682.8319398465907	0.0	1851.252522766576	644.6420039265478	0.0	1937.8330311780658	429.93652094545325	0.0	1957.5798497857652	558.1393827126766	0.0	1873.0065329207766	639.766585426855	0.0	1889.4215753594372	681.4179481067332	0.0	1883.7656244858285	677.175990746572	0.0	1851.232630454598	643.2509059794714	0.0	1926.0966147721067	385.3315388395361	0.0	1927.1646056136663	328.35790342747697	0.0	1919.4607402730246	351.37038781657833	0.0	1922.7840473994827	590.0409363710373	0.0	1925.5575966152553	559.3161847283221	0.0	1874.1894194238066	650.0797752988858	0.0	1920.259184346927	590.0556291822453	0.0	1926.2550890150994	559.19551860354	0.0	1847.8093880091924	674.3337397115283	0.0
2851	47.516666666666666	1925.4517298775427	474.06538648342547	0.0	1941.0403556228316	535.4839136695009	0.0	1957.4752237293023	572.4839726127778	0.0	1872.3254187331484	640.5169423117734	0.0	1862.669389120029	653.0485992327559	0.0	1875.2817096893764	682.8319340337663	0.0	1851.2612478466283	644.6295162553644	0.0	1940.7160520675563	424.411385130653	0.0	1952.1754904682866	574.3474571280452	0.0	1872.9169448192324	639.8256347337051	0.0	1889.4215753451917	681.4179481106148	0.0	1883.765621824868	677.1759923464598	0.0	1851.122667966471	643.3539920943942	0.0	1882.7330304136747	480.6069810302565	0.0	1884.5783208025782	405.0036679730967	0.0	1865.8071255044554	436.800730629616	0.0	1906.5291613322283	658.082212778078	0.0	1922.8201893029375	577.6147459251067	0.0	1875.5012412700396	662.5144412142432	0.0	1889.7925076473982	658.6462983588506	0.0	1931.4676631945833	553.9043891454697	0.0	1807.098242571743	714.7455517604005	0.0
2852	47.53333333333333	1925.1939998132443	474.387412928536	0.0	1928.786031321366	608.8911831293374	0.0	1940.8823191144136	605.7939146541684	0.0	1872.146353650116	640.6897207641158	0.0	1848.629452958454	622.7466617705066	0.0	1875.2817283085724	682.8319204205218	0.0	1851.2710684284564	644.6154616379356	0.0	1944.4258462663984	417.7158703119872	0.0	1937.8073723756359	605.9606675612878	0.0	1873.3213805304802	639.4279378228374	0.0	1889.4215753296892	681.4179481149342	0.0	1883.7656199285468	677.1759934866094	0.0	1850.9355518274433	643.5294078829636	0.0	1819.1510563945483	615.8952790031657	0.0	1823.2417756687262	513.2072450409817	0.0	1787.5768993667098	557.265464640148	0.0	1881.0822379676617	754.3904217342406	0.0	1913.7698893584713	616.2802006938056	0.0	1871.0820035539514	686.9538819562542	0.0	1843.897953676314	756.2967375986601	0.0	1935.6436356575264	549.7822457755206	0.0	1747.3680834594772	770.4481450724047	0.0
2853	47.55	1924.947799151604	474.6971776635303	0.0	1906.6910003216844	713.5125923684266	0.0	1909.5645593925813	658.2814386673482	0.0	1871.9134888870813	640.9269630917604	0.0	1836.948461754287	588.8020081625789	0.0	1875.281760728657	682.8318968090614	0.0	1851.2771237671768	644.6067977119119	0.0	1947.7136279864321	412.56156110578604	0.0	1911.1162946970926	654.2289127047471	0.0	1874.658221852259	638.1837344954743	0.0	1889.421575321274	681.4179481174909	0.0	1883.7656211240414	677.1759927678161	0.0	1850.6838386292106	643.765382529619	0.0	1744.7029082045296	767.5681832633777	0.0	1753.0139798333344	633.5056715741501	0.0	1696.6654280405749	691.0252120726195	0.0	1848.0674023301706	861.9148860736362	0.0	1895.3423709054728	679.0108195797396	0.0	1855.6680022003807	724.500098873101	0.0	1786.6177128642332	866.3460503467759	0.0	1934.5789133375947	551.1863100044803	0.0	1677.3808560782084	830.6183697470009	0.0
2854	47.56666666666666	1924.8904532213116	474.7747660437839	0.0	1874.467240163807	831.4514876445966	0.0	1862.177156718533	725.3487936282219	0.0	1871.702504236715	641.1652976887829	0.0	1828.4841295698245	562.6759743000721	0.0	1875.281805390133	682.8318644104601	0.0	1851.2700999384228	644.6168556160659	0.0	1947.8300912074694	414.50980911554433	0.0	1871.1615952301706	713.7416059707753	0.0	1877.379984218773	635.702147122198	0.0	1889.4215753355288	681.4179481141064	0.0	1883.7656290279556	677.1759880156145	0.0	1850.4401691782002	643.9938182529459	0.0	1674.6560486392077	900.3670571245706	0.0	1688.7499130159129	737.1902863301351	0.0	1612.137746687634	806.2951510890094	0.0	1809.853373982563	955.4580996839172	0.0	1865.9042291882163	761.396521612726	0.0	1824.0342995836513	771.1548213900904	0.0	1722.0771606466294	964.1818801155035	0.0	1921.514697161795	565.0597093187666	0.0	1611.4115360995872	881.2865401961781	0.0
2855	47.583333333333336	1925.328085687488	474.2391994903589	0.0	1834.5211310704865	935.8552903773588	0.0	1801.5774945780702	796.9079043178652	0.0	1871.6824302381954	641.250494718046	0.0	1818.016996184982	555.6780087083554	0.0	1875.2818505137755	682.8318319020848	0.0	1851.2359832147852	644.6656924288619	0.0	1940.188002262867	432.3903568883927	0.0	1820.1315145577069	774.5158848739678	0.0	1881.6776419891773	631.8450819776251	0.0	1889.421575395383	681.4179480985414	0.0	1883.7656480165574	677.1759765987972	0.0	1850.3752560735506	644.0546778312679	0.0	1620.22931533703	991.038144909416	0.0	1639.7138894169013	805.506290666399	0.0	1547.5268460746338	882.7782323155934	0.0	1768.4131244770006	1018.483098038529	0.0	1826.667613771167	850.711497065178	0.0	1774.5192565240839	819.381788483854	0.0	1652.1063279564225	1033.863013663652	0.0	1887.9212660463895	600.0715909536146	0.0	1559.6778920418205	916.0416146617858	0.0
